<mxfile host="Electron" modified="2024-05-25T09:43:09.262Z" agent="Mozilla/5.0 (Macintosh; Intel Mac OS X 10_15_7) AppleWebKit/537.36 (KHTML, like Gecko) draw.io/22.1.2 Chrome/114.0.5735.289 Electron/25.9.4 Safari/537.36" etag="er8K-jzL-huQGJSjL4GZ" version="22.1.2" type="device">
  <diagram name="第 1 页" id="B1yNS-DooYPic2zi1JoR">
    <mxGraphModel dx="1324" dy="1298" grid="1" gridSize="10" guides="1" tooltips="1" connect="1" arrows="1" fold="1" page="1" pageScale="1" pageWidth="827" pageHeight="1169" math="0" shadow="0">
      <root>
        <mxCell id="0" />
        <mxCell id="1" parent="0" />
        <mxCell id="cPLY9A14_VVte76hpZXi-6" style="edgeStyle=orthogonalEdgeStyle;rounded=0;orthogonalLoop=1;jettySize=auto;html=1;entryX=0.5;entryY=0;entryDx=0;entryDy=0;fontFamily=Comic Sans MS;fontStyle=0;fontSize=13;labelBackgroundColor=none;strokeColor=#09555B;fontColor=default;" edge="1" parent="1" source="cPLY9A14_VVte76hpZXi-2" target="cPLY9A14_VVte76hpZXi-5">
          <mxGeometry relative="1" as="geometry" />
        </mxCell>
        <mxCell id="cPLY9A14_VVte76hpZXi-2" value="发送程序" style="rounded=1;whiteSpace=wrap;html=1;fontFamily=Comic Sans MS;fontStyle=0;fontSize=13;labelBackgroundColor=none;fillColor=#FAD9D5;strokeColor=#D0CEE2;fontColor=#1A1A1A;" vertex="1" parent="1">
          <mxGeometry x="60" y="20" width="120" height="60" as="geometry" />
        </mxCell>
        <mxCell id="cPLY9A14_VVte76hpZXi-11" value="" style="edgeStyle=orthogonalEdgeStyle;rounded=0;orthogonalLoop=1;jettySize=auto;html=1;fontFamily=Comic Sans MS;fontStyle=0;fontSize=13;labelBackgroundColor=none;strokeColor=#09555B;fontColor=default;" edge="1" parent="1" source="cPLY9A14_VVte76hpZXi-5" target="cPLY9A14_VVte76hpZXi-10">
          <mxGeometry relative="1" as="geometry" />
        </mxCell>
        <mxCell id="cPLY9A14_VVte76hpZXi-5" value="初始化&lt;br style=&quot;font-size: 13px;&quot;&gt;IO8255&lt;br style=&quot;font-size: 13px;&quot;&gt;IO8254&lt;br style=&quot;font-size: 13px;&quot;&gt;IO8251" style="shape=parallelogram;perimeter=parallelogramPerimeter;whiteSpace=wrap;html=1;fixedSize=1;fontFamily=Comic Sans MS;fontStyle=0;fontSize=13;labelBackgroundColor=none;fillColor=#FAD9D5;strokeColor=#D0CEE2;fontColor=#1A1A1A;" vertex="1" parent="1">
          <mxGeometry x="55" y="140" width="130" height="70" as="geometry" />
        </mxCell>
        <mxCell id="cPLY9A14_VVte76hpZXi-13" value="" style="edgeStyle=orthogonalEdgeStyle;rounded=0;orthogonalLoop=1;jettySize=auto;html=1;fontFamily=Comic Sans MS;fontStyle=0;fontSize=13;labelBackgroundColor=none;strokeColor=#09555B;fontColor=default;" edge="1" parent="1" source="cPLY9A14_VVte76hpZXi-10" target="cPLY9A14_VVte76hpZXi-12">
          <mxGeometry relative="1" as="geometry" />
        </mxCell>
        <mxCell id="cPLY9A14_VVte76hpZXi-10" value="第一次收集键盘数据" style="whiteSpace=wrap;html=1;fontFamily=Comic Sans MS;fontStyle=0;fontSize=13;labelBackgroundColor=none;fillColor=#FAD9D5;strokeColor=#D0CEE2;fontColor=#1A1A1A;" vertex="1" parent="1">
          <mxGeometry x="60" y="280" width="120" height="60" as="geometry" />
        </mxCell>
        <mxCell id="cPLY9A14_VVte76hpZXi-15" value="" style="edgeStyle=orthogonalEdgeStyle;rounded=0;orthogonalLoop=1;jettySize=auto;html=1;fontFamily=Comic Sans MS;fontStyle=0;fontSize=13;labelBackgroundColor=none;strokeColor=#09555B;fontColor=default;" edge="1" parent="1" source="cPLY9A14_VVte76hpZXi-12" target="cPLY9A14_VVte76hpZXi-14">
          <mxGeometry relative="1" as="geometry" />
        </mxCell>
        <mxCell id="cPLY9A14_VVte76hpZXi-12" value="按每行输出音频信息" style="rhombus;whiteSpace=wrap;html=1;fontFamily=Comic Sans MS;fontStyle=0;fontSize=13;labelBackgroundColor=none;fillColor=#FAD9D5;strokeColor=#D0CEE2;fontColor=#1A1A1A;" vertex="1" parent="1">
          <mxGeometry x="40" y="400" width="160" height="80" as="geometry" />
        </mxCell>
        <mxCell id="cPLY9A14_VVte76hpZXi-17" value="" style="edgeStyle=orthogonalEdgeStyle;rounded=0;orthogonalLoop=1;jettySize=auto;html=1;fontFamily=Comic Sans MS;fontStyle=0;fontSize=13;labelBackgroundColor=none;strokeColor=#09555B;fontColor=default;" edge="1" parent="1" source="cPLY9A14_VVte76hpZXi-14" target="cPLY9A14_VVte76hpZXi-16">
          <mxGeometry relative="1" as="geometry" />
        </mxCell>
        <mxCell id="cPLY9A14_VVte76hpZXi-22" style="edgeStyle=orthogonalEdgeStyle;rounded=0;orthogonalLoop=1;jettySize=auto;html=1;exitX=0;exitY=0.5;exitDx=0;exitDy=0;entryX=0;entryY=0.5;entryDx=0;entryDy=0;fontFamily=Comic Sans MS;fontStyle=0;fontSize=13;labelBackgroundColor=none;strokeColor=#09555B;fontColor=default;" edge="1" parent="1" source="cPLY9A14_VVte76hpZXi-14" target="cPLY9A14_VVte76hpZXi-12">
          <mxGeometry relative="1" as="geometry">
            <Array as="points">
              <mxPoint x="10" y="570" />
              <mxPoint x="10" y="440" />
            </Array>
          </mxGeometry>
        </mxCell>
        <mxCell id="cPLY9A14_VVte76hpZXi-72" value="N" style="edgeLabel;html=1;align=center;verticalAlign=middle;resizable=0;points=[];fontColor=#1A1A1A;fontFamily=Comic Sans MS;fontSize=13;fontStyle=0" vertex="1" connectable="0" parent="cPLY9A14_VVte76hpZXi-22">
          <mxGeometry x="0.0815" y="-1" relative="1" as="geometry">
            <mxPoint as="offset" />
          </mxGeometry>
        </mxCell>
        <mxCell id="cPLY9A14_VVte76hpZXi-14" value="按每列返回信息&lt;br style=&quot;font-size: 13px;&quot;&gt;是否有信息" style="rhombus;whiteSpace=wrap;html=1;fontFamily=Comic Sans MS;fontStyle=0;fontSize=13;labelBackgroundColor=none;fillColor=#FAD9D5;strokeColor=#D0CEE2;fontColor=#1A1A1A;" vertex="1" parent="1">
          <mxGeometry x="40" y="530" width="160" height="80" as="geometry" />
        </mxCell>
        <mxCell id="cPLY9A14_VVte76hpZXi-19" value="" style="edgeStyle=orthogonalEdgeStyle;rounded=0;orthogonalLoop=1;jettySize=auto;html=1;fontFamily=Comic Sans MS;fontStyle=0;fontSize=13;labelBackgroundColor=none;strokeColor=#09555B;fontColor=default;" edge="1" parent="1" source="cPLY9A14_VVte76hpZXi-16" target="cPLY9A14_VVte76hpZXi-18">
          <mxGeometry relative="1" as="geometry" />
        </mxCell>
        <mxCell id="cPLY9A14_VVte76hpZXi-16" value="第二次收集数据&lt;br style=&quot;font-size: 13px;&quot;&gt;消除干扰" style="whiteSpace=wrap;html=1;fontFamily=Comic Sans MS;fontStyle=0;fontSize=13;labelBackgroundColor=none;fillColor=#FAD9D5;strokeColor=#D0CEE2;fontColor=#1A1A1A;" vertex="1" parent="1">
          <mxGeometry x="60" y="660" width="120" height="60" as="geometry" />
        </mxCell>
        <mxCell id="cPLY9A14_VVte76hpZXi-20" style="edgeStyle=orthogonalEdgeStyle;rounded=0;orthogonalLoop=1;jettySize=auto;html=1;entryX=1;entryY=0.5;entryDx=0;entryDy=0;fontFamily=Comic Sans MS;fontStyle=0;fontSize=13;labelBackgroundColor=none;strokeColor=#09555B;fontColor=default;" edge="1" parent="1" source="cPLY9A14_VVte76hpZXi-18" target="cPLY9A14_VVte76hpZXi-12">
          <mxGeometry relative="1" as="geometry">
            <Array as="points">
              <mxPoint x="260" y="810" />
              <mxPoint x="260" y="440" />
            </Array>
          </mxGeometry>
        </mxCell>
        <mxCell id="cPLY9A14_VVte76hpZXi-71" value="N" style="edgeLabel;html=1;align=center;verticalAlign=middle;resizable=0;points=[];fontColor=#1A1A1A;fontFamily=Comic Sans MS;fontSize=13;fontStyle=0" vertex="1" connectable="0" parent="cPLY9A14_VVte76hpZXi-20">
          <mxGeometry x="0.037" relative="1" as="geometry">
            <mxPoint as="offset" />
          </mxGeometry>
        </mxCell>
        <mxCell id="cPLY9A14_VVte76hpZXi-25" value="" style="edgeStyle=orthogonalEdgeStyle;rounded=0;orthogonalLoop=1;jettySize=auto;html=1;fontFamily=Comic Sans MS;fontStyle=0;fontSize=13;labelBackgroundColor=none;strokeColor=#09555B;fontColor=default;" edge="1" parent="1" source="cPLY9A14_VVte76hpZXi-18" target="cPLY9A14_VVte76hpZXi-24">
          <mxGeometry relative="1" as="geometry" />
        </mxCell>
        <mxCell id="cPLY9A14_VVte76hpZXi-26" value="Y" style="edgeLabel;html=1;align=center;verticalAlign=middle;resizable=0;points=[];fontFamily=Comic Sans MS;fontStyle=0;fontSize=13;labelBackgroundColor=none;fontColor=#1A1A1A;" vertex="1" connectable="0" parent="cPLY9A14_VVte76hpZXi-25">
          <mxGeometry x="-0.1581" y="1" relative="1" as="geometry">
            <mxPoint as="offset" />
          </mxGeometry>
        </mxCell>
        <mxCell id="cPLY9A14_VVte76hpZXi-18" value="两次收集数据&lt;br style=&quot;font-size: 13px;&quot;&gt;是否相同" style="rhombus;whiteSpace=wrap;html=1;fontFamily=Comic Sans MS;fontStyle=0;fontSize=13;labelBackgroundColor=none;fillColor=#FAD9D5;strokeColor=#D0CEE2;fontColor=#1A1A1A;" vertex="1" parent="1">
          <mxGeometry x="40" y="770" width="160" height="80" as="geometry" />
        </mxCell>
        <mxCell id="cPLY9A14_VVte76hpZXi-28" value="" style="edgeStyle=orthogonalEdgeStyle;rounded=0;orthogonalLoop=1;jettySize=auto;html=1;fontFamily=Comic Sans MS;fontStyle=0;fontSize=13;labelBackgroundColor=none;strokeColor=#09555B;fontColor=default;" edge="1" parent="1" source="cPLY9A14_VVte76hpZXi-24" target="cPLY9A14_VVte76hpZXi-27">
          <mxGeometry relative="1" as="geometry" />
        </mxCell>
        <mxCell id="cPLY9A14_VVte76hpZXi-24" value="第三次收集数据" style="whiteSpace=wrap;html=1;fontFamily=Comic Sans MS;fontStyle=0;fontSize=13;labelBackgroundColor=none;fillColor=#FAD9D5;strokeColor=#D0CEE2;fontColor=#1A1A1A;" vertex="1" parent="1">
          <mxGeometry x="60" y="900" width="120" height="60" as="geometry" />
        </mxCell>
        <mxCell id="cPLY9A14_VVte76hpZXi-29" style="edgeStyle=orthogonalEdgeStyle;rounded=0;orthogonalLoop=1;jettySize=auto;html=1;entryX=1;entryY=0.5;entryDx=0;entryDy=0;fontFamily=Comic Sans MS;fontStyle=0;fontSize=13;labelBackgroundColor=none;strokeColor=#09555B;fontColor=default;" edge="1" parent="1" source="cPLY9A14_VVte76hpZXi-27" target="cPLY9A14_VVte76hpZXi-24">
          <mxGeometry relative="1" as="geometry">
            <Array as="points">
              <mxPoint x="260" y="1050" />
              <mxPoint x="260" y="930" />
            </Array>
          </mxGeometry>
        </mxCell>
        <mxCell id="cPLY9A14_VVte76hpZXi-73" value="N" style="edgeLabel;html=1;align=center;verticalAlign=middle;resizable=0;points=[];fontColor=#1A1A1A;fontFamily=Comic Sans MS;fontSize=13;fontStyle=0" vertex="1" connectable="0" parent="cPLY9A14_VVte76hpZXi-29">
          <mxGeometry x="-0.0941" y="-2" relative="1" as="geometry">
            <mxPoint as="offset" />
          </mxGeometry>
        </mxCell>
        <mxCell id="cPLY9A14_VVte76hpZXi-32" value="" style="edgeStyle=orthogonalEdgeStyle;rounded=0;orthogonalLoop=1;jettySize=auto;html=1;fontFamily=Comic Sans MS;fontStyle=0;fontSize=13;labelBackgroundColor=none;strokeColor=#09555B;fontColor=default;" edge="1" parent="1" source="cPLY9A14_VVte76hpZXi-27">
          <mxGeometry relative="1" as="geometry">
            <mxPoint x="120" y="1140" as="targetPoint" />
          </mxGeometry>
        </mxCell>
        <mxCell id="cPLY9A14_VVte76hpZXi-74" value="Y" style="edgeLabel;html=1;align=center;verticalAlign=middle;resizable=0;points=[];fontColor=#1A1A1A;fontFamily=Comic Sans MS;fontSize=13;fontStyle=0" vertex="1" connectable="0" parent="cPLY9A14_VVte76hpZXi-32">
          <mxGeometry x="-0.3025" relative="1" as="geometry">
            <mxPoint as="offset" />
          </mxGeometry>
        </mxCell>
        <mxCell id="cPLY9A14_VVte76hpZXi-27" value="按键是否按下" style="rhombus;whiteSpace=wrap;html=1;fontFamily=Comic Sans MS;fontStyle=0;fontSize=13;labelBackgroundColor=none;fillColor=#FAD9D5;strokeColor=#D0CEE2;fontColor=#1A1A1A;" vertex="1" parent="1">
          <mxGeometry x="30" y="1010" width="180" height="80" as="geometry" />
        </mxCell>
        <mxCell id="cPLY9A14_VVte76hpZXi-35" value="调用子程序" style="rounded=1;whiteSpace=wrap;html=1;fontFamily=Comic Sans MS;fontStyle=0;fontSize=13;labelBackgroundColor=none;fillColor=#FAD9D5;strokeColor=#D0CEE2;fontColor=#1A1A1A;" vertex="1" parent="1">
          <mxGeometry x="60" y="1140" width="120" height="60" as="geometry" />
        </mxCell>
        <mxCell id="cPLY9A14_VVte76hpZXi-38" style="edgeStyle=orthogonalEdgeStyle;rounded=0;orthogonalLoop=1;jettySize=auto;html=1;entryX=0.5;entryY=0;entryDx=0;entryDy=0;fontFamily=Comic Sans MS;fontStyle=0;fontSize=13;labelBackgroundColor=none;strokeColor=#09555B;fontColor=default;" edge="1" parent="1" target="cPLY9A14_VVte76hpZXi-37">
          <mxGeometry relative="1" as="geometry">
            <mxPoint x="420" y="80" as="sourcePoint" />
          </mxGeometry>
        </mxCell>
        <mxCell id="cPLY9A14_VVte76hpZXi-36" value="调用子程序&lt;br style=&quot;font-size: 13px;&quot;&gt;计算键盘信息" style="rounded=1;whiteSpace=wrap;html=1;fontFamily=Comic Sans MS;fontStyle=0;fontSize=13;labelBackgroundColor=none;fillColor=#FAD9D5;strokeColor=#D0CEE2;fontColor=#1A1A1A;" vertex="1" parent="1">
          <mxGeometry x="360" y="20" width="120" height="60" as="geometry" />
        </mxCell>
        <mxCell id="cPLY9A14_VVte76hpZXi-40" value="" style="edgeStyle=orthogonalEdgeStyle;rounded=0;orthogonalLoop=1;jettySize=auto;html=1;fontFamily=Comic Sans MS;fontStyle=0;fontSize=13;labelBackgroundColor=none;strokeColor=#09555B;fontColor=default;" edge="1" parent="1" source="cPLY9A14_VVte76hpZXi-37" target="cPLY9A14_VVte76hpZXi-39">
          <mxGeometry relative="1" as="geometry" />
        </mxCell>
        <mxCell id="cPLY9A14_VVte76hpZXi-37" value="行列值取反" style="rounded=0;whiteSpace=wrap;html=1;fontFamily=Comic Sans MS;fontStyle=0;fontSize=13;labelBackgroundColor=none;fillColor=#FAD9D5;strokeColor=#D0CEE2;fontColor=#1A1A1A;" vertex="1" parent="1">
          <mxGeometry x="360" y="145" width="120" height="60" as="geometry" />
        </mxCell>
        <mxCell id="cPLY9A14_VVte76hpZXi-42" value="" style="edgeStyle=orthogonalEdgeStyle;rounded=0;orthogonalLoop=1;jettySize=auto;html=1;fontFamily=Comic Sans MS;fontStyle=0;fontSize=13;labelBackgroundColor=none;strokeColor=#09555B;fontColor=default;" edge="1" parent="1" source="cPLY9A14_VVte76hpZXi-39" target="cPLY9A14_VVte76hpZXi-41">
          <mxGeometry relative="1" as="geometry" />
        </mxCell>
        <mxCell id="cPLY9A14_VVte76hpZXi-39" value="行数*4 + 列数" style="rounded=0;whiteSpace=wrap;html=1;fontFamily=Comic Sans MS;fontStyle=0;fontSize=13;labelBackgroundColor=none;fillColor=#FAD9D5;strokeColor=#D0CEE2;fontColor=#1A1A1A;" vertex="1" parent="1">
          <mxGeometry x="360" y="280" width="120" height="60" as="geometry" />
        </mxCell>
        <mxCell id="cPLY9A14_VVte76hpZXi-44" value="" style="edgeStyle=orthogonalEdgeStyle;rounded=0;orthogonalLoop=1;jettySize=auto;html=1;fontFamily=Comic Sans MS;fontStyle=0;fontSize=13;labelBackgroundColor=none;strokeColor=#09555B;fontColor=default;" edge="1" parent="1" source="cPLY9A14_VVte76hpZXi-41" target="cPLY9A14_VVte76hpZXi-43">
          <mxGeometry relative="1" as="geometry" />
        </mxCell>
        <mxCell id="cPLY9A14_VVte76hpZXi-41" value="得到按键对应的值" style="rounded=0;whiteSpace=wrap;html=1;fontFamily=Comic Sans MS;fontStyle=0;fontSize=13;labelBackgroundColor=none;fillColor=#FAD9D5;strokeColor=#D0CEE2;fontColor=#1A1A1A;" vertex="1" parent="1">
          <mxGeometry x="360" y="400" width="120" height="60" as="geometry" />
        </mxCell>
        <mxCell id="cPLY9A14_VVte76hpZXi-46" value="" style="edgeStyle=orthogonalEdgeStyle;rounded=0;orthogonalLoop=1;jettySize=auto;html=1;fontFamily=Comic Sans MS;fontStyle=0;fontSize=13;labelBackgroundColor=none;strokeColor=#09555B;fontColor=default;" edge="1" parent="1" source="cPLY9A14_VVte76hpZXi-43" target="cPLY9A14_VVte76hpZXi-45">
          <mxGeometry relative="1" as="geometry" />
        </mxCell>
        <mxCell id="cPLY9A14_VVte76hpZXi-43" value="调用子程序：&lt;br style=&quot;font-size: 13px;&quot;&gt;数码管显示" style="rounded=0;whiteSpace=wrap;html=1;fontFamily=Comic Sans MS;fontStyle=0;fontSize=13;labelBackgroundColor=none;fillColor=#FAD9D5;strokeColor=#D0CEE2;fontColor=#1A1A1A;" vertex="1" parent="1">
          <mxGeometry x="360" y="524.5" width="120" height="60" as="geometry" />
        </mxCell>
        <mxCell id="cPLY9A14_VVte76hpZXi-48" value="" style="edgeStyle=orthogonalEdgeStyle;rounded=0;orthogonalLoop=1;jettySize=auto;html=1;fontFamily=Comic Sans MS;fontStyle=0;fontSize=13;labelBackgroundColor=none;strokeColor=#09555B;fontColor=default;" edge="1" parent="1" source="cPLY9A14_VVte76hpZXi-45" target="cPLY9A14_VVte76hpZXi-47">
          <mxGeometry relative="1" as="geometry" />
        </mxCell>
        <mxCell id="cPLY9A14_VVte76hpZXi-45" value="8255输出&lt;br style=&quot;font-size: 13px;&quot;&gt;对应段码" style="rounded=0;whiteSpace=wrap;html=1;fontFamily=Comic Sans MS;fontStyle=0;fontSize=13;labelBackgroundColor=none;fillColor=#FAD9D5;strokeColor=#D0CEE2;fontColor=#1A1A1A;" vertex="1" parent="1">
          <mxGeometry x="360" y="640" width="120" height="60" as="geometry" />
        </mxCell>
        <mxCell id="cPLY9A14_VVte76hpZXi-50" style="edgeStyle=orthogonalEdgeStyle;rounded=0;orthogonalLoop=1;jettySize=auto;html=1;entryX=0.5;entryY=0;entryDx=0;entryDy=0;fontFamily=Comic Sans MS;fontStyle=0;fontSize=13;labelBackgroundColor=none;strokeColor=#09555B;fontColor=default;" edge="1" parent="1" source="cPLY9A14_VVte76hpZXi-47" target="cPLY9A14_VVte76hpZXi-49">
          <mxGeometry relative="1" as="geometry" />
        </mxCell>
        <mxCell id="cPLY9A14_VVte76hpZXi-47" value="调用子程序：&lt;br style=&quot;font-size: 13px;&quot;&gt;发送字符" style="rounded=0;whiteSpace=wrap;html=1;fontFamily=Comic Sans MS;fontStyle=0;fontSize=13;labelBackgroundColor=none;fillColor=#FAD9D5;strokeColor=#D0CEE2;fontColor=#1A1A1A;" vertex="1" parent="1">
          <mxGeometry x="360" y="760" width="120" height="60" as="geometry" />
        </mxCell>
        <mxCell id="cPLY9A14_VVte76hpZXi-53" value="" style="edgeStyle=orthogonalEdgeStyle;rounded=0;orthogonalLoop=1;jettySize=auto;html=1;fontFamily=Comic Sans MS;fontStyle=0;fontSize=13;labelBackgroundColor=none;strokeColor=#09555B;fontColor=default;" edge="1" parent="1" source="cPLY9A14_VVte76hpZXi-49" target="cPLY9A14_VVte76hpZXi-52">
          <mxGeometry relative="1" as="geometry" />
        </mxCell>
        <mxCell id="cPLY9A14_VVte76hpZXi-49" value="子程序" style="rounded=1;whiteSpace=wrap;html=1;fontFamily=Comic Sans MS;fontStyle=0;fontSize=13;labelBackgroundColor=none;fillColor=#FAD9D5;strokeColor=#D0CEE2;fontColor=#1A1A1A;" vertex="1" parent="1">
          <mxGeometry x="360" y="880" width="120" height="60" as="geometry" />
        </mxCell>
        <mxCell id="cPLY9A14_VVte76hpZXi-54" style="edgeStyle=orthogonalEdgeStyle;rounded=0;orthogonalLoop=1;jettySize=auto;html=1;entryX=1;entryY=0.5;entryDx=0;entryDy=0;fontFamily=Comic Sans MS;fontStyle=0;fontSize=13;labelBackgroundColor=none;strokeColor=#09555B;fontColor=default;" edge="1" parent="1" source="cPLY9A14_VVte76hpZXi-52" target="cPLY9A14_VVte76hpZXi-10">
          <mxGeometry relative="1" as="geometry">
            <Array as="points">
              <mxPoint x="310" y="1030" />
              <mxPoint x="310" y="310" />
            </Array>
          </mxGeometry>
        </mxCell>
        <mxCell id="cPLY9A14_VVte76hpZXi-52" value="延时程序" style="rounded=1;whiteSpace=wrap;html=1;fontFamily=Comic Sans MS;fontStyle=0;fontSize=13;labelBackgroundColor=none;fillColor=#FAD9D5;strokeColor=#D0CEE2;fontColor=#1A1A1A;" vertex="1" parent="1">
          <mxGeometry x="360" y="1000" width="120" height="60" as="geometry" />
        </mxCell>
        <mxCell id="cPLY9A14_VVte76hpZXi-57" value="" style="edgeStyle=orthogonalEdgeStyle;rounded=0;orthogonalLoop=1;jettySize=auto;html=1;fontFamily=Comic Sans MS;fontStyle=0;fontSize=13;labelBackgroundColor=none;strokeColor=#09555B;fontColor=default;" edge="1" parent="1" source="cPLY9A14_VVte76hpZXi-55" target="cPLY9A14_VVte76hpZXi-56">
          <mxGeometry relative="1" as="geometry" />
        </mxCell>
        <mxCell id="cPLY9A14_VVte76hpZXi-55" value="发送程序" style="rounded=1;whiteSpace=wrap;html=1;fontFamily=Comic Sans MS;fontStyle=0;fontSize=13;labelBackgroundColor=none;fillColor=#FAD9D5;strokeColor=#D0CEE2;fontColor=#1A1A1A;" vertex="1" parent="1">
          <mxGeometry x="610" y="20" width="120" height="60" as="geometry" />
        </mxCell>
        <mxCell id="cPLY9A14_VVte76hpZXi-59" value="" style="edgeStyle=orthogonalEdgeStyle;rounded=0;orthogonalLoop=1;jettySize=auto;html=1;fontFamily=Comic Sans MS;fontStyle=0;fontSize=13;labelBackgroundColor=none;strokeColor=#09555B;fontColor=default;" edge="1" parent="1" source="cPLY9A14_VVte76hpZXi-56" target="cPLY9A14_VVte76hpZXi-58">
          <mxGeometry relative="1" as="geometry" />
        </mxCell>
        <mxCell id="cPLY9A14_VVte76hpZXi-56" value="8254命令字输入" style="rounded=0;whiteSpace=wrap;html=1;fontFamily=Comic Sans MS;fontStyle=0;fontSize=13;labelBackgroundColor=none;fillColor=#FAD9D5;strokeColor=#D0CEE2;fontColor=#1A1A1A;" vertex="1" parent="1">
          <mxGeometry x="610" y="145" width="120" height="60" as="geometry" />
        </mxCell>
        <mxCell id="cPLY9A14_VVte76hpZXi-61" value="" style="edgeStyle=orthogonalEdgeStyle;rounded=0;orthogonalLoop=1;jettySize=auto;html=1;fontFamily=Comic Sans MS;fontStyle=0;fontSize=13;labelBackgroundColor=none;strokeColor=#09555B;fontColor=default;" edge="1" parent="1" source="cPLY9A14_VVte76hpZXi-58" target="cPLY9A14_VVte76hpZXi-60">
          <mxGeometry relative="1" as="geometry" />
        </mxCell>
        <mxCell id="cPLY9A14_VVte76hpZXi-58" value="存入计数器初值" style="rounded=0;whiteSpace=wrap;html=1;fontFamily=Comic Sans MS;fontStyle=0;fontSize=13;labelBackgroundColor=none;fillColor=#FAD9D5;strokeColor=#D0CEE2;fontColor=#1A1A1A;" vertex="1" parent="1">
          <mxGeometry x="610" y="285" width="120" height="60" as="geometry" />
        </mxCell>
        <mxCell id="cPLY9A14_VVte76hpZXi-63" value="" style="edgeStyle=orthogonalEdgeStyle;rounded=0;orthogonalLoop=1;jettySize=auto;html=1;fontFamily=Comic Sans MS;fontStyle=0;fontSize=13;labelBackgroundColor=none;strokeColor=#09555B;fontColor=default;" edge="1" parent="1" source="cPLY9A14_VVte76hpZXi-60" target="cPLY9A14_VVte76hpZXi-62">
          <mxGeometry relative="1" as="geometry" />
        </mxCell>
        <mxCell id="cPLY9A14_VVte76hpZXi-60" value="生成合适波特率的&lt;br style=&quot;font-size: 13px;&quot;&gt;时钟脉冲" style="rounded=0;whiteSpace=wrap;html=1;fontFamily=Comic Sans MS;fontStyle=0;fontSize=13;labelBackgroundColor=none;fillColor=#FAD9D5;strokeColor=#D0CEE2;fontColor=#1A1A1A;" vertex="1" parent="1">
          <mxGeometry x="610" y="400" width="120" height="60" as="geometry" />
        </mxCell>
        <mxCell id="cPLY9A14_VVte76hpZXi-65" value="" style="edgeStyle=orthogonalEdgeStyle;rounded=0;orthogonalLoop=1;jettySize=auto;html=1;fontFamily=Comic Sans MS;fontStyle=0;fontSize=13;labelBackgroundColor=none;strokeColor=#09555B;fontColor=default;" edge="1" parent="1" source="cPLY9A14_VVte76hpZXi-62" target="cPLY9A14_VVte76hpZXi-64">
          <mxGeometry relative="1" as="geometry" />
        </mxCell>
        <mxCell id="cPLY9A14_VVte76hpZXi-62" value="获取8251发送状态" style="rounded=0;whiteSpace=wrap;html=1;fontFamily=Comic Sans MS;fontStyle=0;fontSize=13;labelBackgroundColor=none;fillColor=#FAD9D5;strokeColor=#D0CEE2;fontColor=#1A1A1A;" vertex="1" parent="1">
          <mxGeometry x="610" y="525" width="120" height="60" as="geometry" />
        </mxCell>
        <mxCell id="cPLY9A14_VVte76hpZXi-67" value="" style="edgeStyle=orthogonalEdgeStyle;rounded=0;orthogonalLoop=1;jettySize=auto;html=1;fontFamily=Comic Sans MS;fontStyle=0;fontSize=13;labelBackgroundColor=none;strokeColor=#09555B;fontColor=default;" edge="1" parent="1" source="cPLY9A14_VVte76hpZXi-64" target="cPLY9A14_VVte76hpZXi-66">
          <mxGeometry relative="1" as="geometry" />
        </mxCell>
        <mxCell id="cPLY9A14_VVte76hpZXi-68" value="&lt;br style=&quot;font-size: 13px;&quot;&gt;" style="edgeLabel;html=1;align=center;verticalAlign=middle;resizable=0;points=[];fontFamily=Comic Sans MS;fontStyle=0;fontSize=13;labelBackgroundColor=none;fontColor=#1A1A1A;" vertex="1" connectable="0" parent="cPLY9A14_VVte76hpZXi-67">
          <mxGeometry x="-0.1547" relative="1" as="geometry">
            <mxPoint as="offset" />
          </mxGeometry>
        </mxCell>
        <mxCell id="cPLY9A14_VVte76hpZXi-75" value="Y" style="edgeLabel;html=1;align=center;verticalAlign=middle;resizable=0;points=[];fontColor=#1A1A1A;fontFamily=Comic Sans MS;fontSize=13;fontStyle=0" vertex="1" connectable="0" parent="cPLY9A14_VVte76hpZXi-67">
          <mxGeometry x="-0.1857" y="2" relative="1" as="geometry">
            <mxPoint as="offset" />
          </mxGeometry>
        </mxCell>
        <mxCell id="cPLY9A14_VVte76hpZXi-64" value="是否准备发送程序" style="rhombus;whiteSpace=wrap;html=1;rounded=0;fontFamily=Comic Sans MS;fontStyle=0;fontSize=13;labelBackgroundColor=none;fillColor=#FAD9D5;strokeColor=#D0CEE2;fontColor=#1A1A1A;" vertex="1" parent="1">
          <mxGeometry x="590" y="650" width="160" height="80" as="geometry" />
        </mxCell>
        <mxCell id="cPLY9A14_VVte76hpZXi-70" value="" style="edgeStyle=orthogonalEdgeStyle;rounded=0;orthogonalLoop=1;jettySize=auto;html=1;fontFamily=Comic Sans MS;fontStyle=0;fontSize=13;labelBackgroundColor=none;strokeColor=#09555B;fontColor=default;" edge="1" parent="1" source="cPLY9A14_VVte76hpZXi-66" target="cPLY9A14_VVte76hpZXi-69">
          <mxGeometry relative="1" as="geometry" />
        </mxCell>
        <mxCell id="cPLY9A14_VVte76hpZXi-66" value="发送1B长度数据" style="whiteSpace=wrap;html=1;rounded=0;fontFamily=Comic Sans MS;fontStyle=0;fontSize=13;labelBackgroundColor=none;fillColor=#FAD9D5;strokeColor=#D0CEE2;fontColor=#1A1A1A;" vertex="1" parent="1">
          <mxGeometry x="610" y="800" width="120" height="60" as="geometry" />
        </mxCell>
        <mxCell id="cPLY9A14_VVte76hpZXi-69" value="发送结束&lt;br style=&quot;font-size: 13px;&quot;&gt;RET" style="whiteSpace=wrap;html=1;rounded=0;fontFamily=Comic Sans MS;fontStyle=0;fontSize=13;labelBackgroundColor=none;fillColor=#FAD9D5;strokeColor=#D0CEE2;fontColor=#1A1A1A;" vertex="1" parent="1">
          <mxGeometry x="610" y="930" width="120" height="60" as="geometry" />
        </mxCell>
      </root>
    </mxGraphModel>
  </diagram>
</mxfile>
